<?xml version="1.0" encoding="UTF-8" standalone="no"?>
<!-- Created with Inkscape (http://www.inkscape.org/) -->

<svg
   width="436mm"
   height="58mm"
   viewBox="0 0 436 58"
   version="1.1"
   id="svg5"
   inkscape:version="1.1.2 (1:1.1+202202050950+0a00cf5339)"
   sodipodi:docname="behavioral_logo.svg"
   xmlns:inkscape="http://www.inkscape.org/namespaces/inkscape"
   xmlns:sodipodi="http://sodipodi.sourceforge.net/DTD/sodipodi-0.dtd"
   xmlns="http://www.w3.org/2000/svg"
   xmlns:svg="http://www.w3.org/2000/svg">
  <sodipodi:namedview
     id="namedview7"
     pagecolor="#ffffff"
     bordercolor="#666666"
     borderopacity="1.0"
     inkscape:pageshadow="2"
     inkscape:pageopacity="0.0"
     inkscape:pagecheckerboard="0"
     inkscape:document-units="mm"
     showgrid="false"
     inkscape:zoom="0.26951813"
     inkscape:cx="862.65068"
     inkscape:cy="-128.00623"
     inkscape:window-width="1840"
     inkscape:window-height="1016"
     inkscape:window-x="80"
     inkscape:window-y="27"
     inkscape:window-maximized="1"
     inkscape:current-layer="layer1" />
  <defs
     id="defs2" />
  <g
     inkscape:label="Layer 1"
     inkscape:groupmode="layer"
     id="layer1">
    <path
       style="fill:#4e73df;fill-opacity:1;stroke:#4e73df;stroke-width:0.264583px;stroke-linecap:butt;stroke-linejoin:miter;stroke-opacity:1"
       d="M 56.510271,20.482918 37.643164,1.6127228 c 0,0 -0.803926,-1.06244467 -1.634558,-0.3055556 -0.830633,0.756889 -4.178009,4.1116847 -4.178009,4.1116847 0,0 -0.458809,0.4703686 0.142581,1.0461726 0.601387,0.5758042 1.186029,1.1917867 1.186029,1.1917867 0,0 0.105693,0.168189 -0.632597,0.8592957 C 31.788322,9.2072126 6.5944501,34.377985 6.5944501,34.377985 c 0,0 -3.1895352,3.198961 -3.6575639,4.478134 -0.4680297,1.279171 -1.3870244,3.703018 -1.2392244,6.000517 0.147799,2.297499 0.7612247,4.304678 1.6917041,5.564791 0.9304804,1.260112 2.3348208,3.234097 4.4256996,4.183464 2.0908758,0.949365 3.5109875,1.465887 5.3279815,1.365907 1.816992,-0.09998 4.929322,-0.582303 5.926362,-1.136476 0.997038,-0.554175 2.967943,-2.241695 3.688326,-3.042502 0.720381,-0.800806 9.816433,-9.963009 9.816433,-9.963009 L 49.375112,24.996638 c 0,0 0.466452,-0.540168 1.067043,-0.01513 0.600594,0.525037 1.409224,1.652617 2.201794,0.831652 0.79257,-0.820963 4.109246,-4.238231 4.109246,-4.238231 0,0 0.533308,-0.386945 -0.242924,-1.092011 z"
       id="path1080" />
    <circle
       style="fill:#4e73df;fill-opacity:1;stroke:#4e73df;stroke-width:0.429;stroke-miterlimit:4;stroke-dasharray:none;stroke-dashoffset:0;stroke-opacity:1"
       id="path1104"
       cx="12.788478"
       cy="45.13364"
       r="11.684887" />
    <path
       style="fill:#ffffff;fill-opacity:1;stroke:#ffffff;stroke-width:0.264583px;stroke-linecap:butt;stroke-linejoin:miter;stroke-opacity:1"
       d="m 20.39122,28.386586 17.817547,0.05396 7.717393,-7.66678 -8.813186,-8.839705 z"
       id="path2395" />
    <text
       xml:space="preserve"
       style="font-size:28.2222px;line-height:1.25;font-family:Roboto;-inkscape-font-specification:Roboto;letter-spacing:0px;word-spacing:0px;fill:#4e73df;fill-opacity:1;stroke:#ffffff;stroke-width:0.264583;stroke-opacity:1"
       x="65.799568"
       y="44.582829"
       id="text2608"><tspan
         sodipodi:role="line"
         id="tspan2606"
         style="font-style:normal;font-variant:normal;font-weight:bold;font-stretch:normal;font-size:28.2222px;font-family:Nunito;-inkscape-font-specification:Nunito;fill:#4e73df;fill-opacity:1;stroke:#ffffff;stroke-width:0.264583;stroke-opacity:1"
         x="65.799568"
         y="44.582829">BEHAVIORAL EXPERIMENT</tspan></text>
  </g>
</svg>
